<?xml version="1.0" encoding="UTF-8" standalone="no"?>
<!DOCTYPE svg PUBLIC "-//W3C//DTD SVG 1.1//EN" "http://www.w3.org/Graphics/SVG/1.1/DTD/svg11.dtd">
<svg width="100%" height="100%" viewBox="0 0 6477 3109" version="1.1" xmlns="http://www.w3.org/2000/svg" xmlns:xlink="http://www.w3.org/1999/xlink" xml:space="preserve" xmlns:serif="http://www.serif.com/" style="fill-rule:evenodd;clip-rule:evenodd;stroke-linejoin:round;stroke-miterlimit:2;">
    <g transform="matrix(5.55556,0,0,5.55556,0,-3664.35)">
        <g id="Logo-Alt" serif:id="Logo Alt" transform="matrix(0.910723,0,0,0.777243,0,659.583)">
            <rect x="0" y="0" width="1280" height="720" style="fill:none;"/>
            <g transform="matrix(1.09803,0,0,1.2866,82.3891,-254.899)">
                <g transform="matrix(144,0,0,144,457.803,452.895)">
                    <path d="M0.09,-0.7L0.6,-0.7L0.6,-0.6L0.19,-0.6L0.19,-0.4L0.54,-0.4L0.54,-0.3L0.19,-0.3L0.19,-0L0.09,-0L0.09,-0.7Z" style="fill:rgb(251,88,88);fill-rule:nonzero;"/>
                </g>
                <g transform="matrix(144,0,0,144,551.389,452.895)">
                    <path d="M0.69,-0.1C0.69,-0.086 0.687,-0.073 0.682,-0.061C0.677,-0.049 0.67,-0.038 0.661,-0.029C0.652,-0.02 0.641,-0.013 0.629,-0.008C0.616,-0.003 0.604,-0 0.59,-0L0.19,-0C0.176,-0 0.163,-0.003 0.151,-0.008C0.139,-0.013 0.128,-0.02 0.119,-0.029C0.11,-0.038 0.103,-0.049 0.098,-0.061C0.092,-0.073 0.09,-0.086 0.09,-0.1L0.09,-0.6C0.09,-0.614 0.092,-0.627 0.098,-0.639C0.103,-0.651 0.11,-0.662 0.119,-0.671C0.128,-0.68 0.139,-0.687 0.151,-0.692C0.163,-0.698 0.176,-0.7 0.19,-0.7L0.59,-0.7C0.604,-0.7 0.616,-0.698 0.629,-0.692C0.641,-0.687 0.652,-0.68 0.661,-0.671C0.67,-0.662 0.677,-0.651 0.682,-0.639C0.687,-0.627 0.69,-0.614 0.69,-0.6L0.69,-0.1ZM0.19,-0.6L0.19,-0.1L0.59,-0.1L0.59,-0.6L0.19,-0.6Z" style="fill:rgb(251,88,88);fill-rule:nonzero;"/>
                </g>
                <g transform="matrix(144,0,0,144,663.678,452.895)">
                    <path d="M0.69,-0.1C0.69,-0.086 0.687,-0.073 0.682,-0.061C0.677,-0.049 0.67,-0.038 0.661,-0.029C0.652,-0.02 0.641,-0.013 0.629,-0.008C0.616,-0.003 0.604,-0 0.59,-0L0.19,-0C0.176,-0 0.163,-0.003 0.151,-0.008C0.139,-0.013 0.128,-0.02 0.119,-0.029C0.11,-0.038 0.103,-0.049 0.098,-0.061C0.092,-0.073 0.09,-0.086 0.09,-0.1L0.09,-0.6C0.09,-0.614 0.092,-0.627 0.098,-0.639C0.103,-0.651 0.11,-0.662 0.119,-0.671C0.128,-0.68 0.139,-0.687 0.151,-0.692C0.163,-0.698 0.176,-0.7 0.19,-0.7L0.59,-0.7C0.604,-0.7 0.616,-0.698 0.629,-0.692C0.641,-0.687 0.652,-0.68 0.661,-0.671C0.67,-0.662 0.677,-0.651 0.682,-0.639C0.687,-0.627 0.69,-0.614 0.69,-0.6L0.69,-0.1ZM0.19,-0.6L0.19,-0.1L0.59,-0.1L0.59,-0.6L0.19,-0.6Z" style="fill:rgb(251,88,88);fill-rule:nonzero;"/>
                </g>
                <g transform="matrix(144,0,0,144,775.967,452.895)">
                    <path d="M0.446,-0.1C0.492,-0.1 0.528,-0.113 0.553,-0.138C0.578,-0.163 0.591,-0.199 0.591,-0.245L0.591,-0.455C0.591,-0.478 0.588,-0.498 0.581,-0.516C0.575,-0.534 0.565,-0.549 0.552,-0.562C0.54,-0.574 0.525,-0.584 0.507,-0.59C0.489,-0.597 0.469,-0.6 0.446,-0.6L0.19,-0.6L0.19,-0.1L0.446,-0.1ZM0.09,-0L0.09,-0.7L0.446,-0.7C0.483,-0.7 0.517,-0.694 0.547,-0.683C0.577,-0.671 0.603,-0.655 0.624,-0.634C0.646,-0.612 0.662,-0.586 0.674,-0.556C0.685,-0.526 0.691,-0.492 0.691,-0.455L0.691,-0.245C0.691,-0.208 0.685,-0.174 0.674,-0.144C0.662,-0.114 0.646,-0.088 0.624,-0.067C0.603,-0.045 0.577,-0.029 0.547,-0.017C0.517,-0.006 0.483,-0 0.446,-0L0.09,-0Z" style="fill:rgb(251,88,88);fill-rule:nonzero;"/>
                </g>
                <g transform="matrix(144,0,0,144,457.803,603.786)">
                    <path d="M0.09,-0.7L0.6,-0.7L0.6,-0.6L0.19,-0.6L0.19,-0.4L0.54,-0.4L0.54,-0.3L0.19,-0.3L0.19,-0L0.09,-0L0.09,-0.7Z" style="fill:rgb(251,88,88);fill-rule:nonzero;"/>
                </g>
                <g transform="matrix(144,0,0,144,551.389,603.786)">
                    <path d="M0.643,-0.45C0.643,-0.353 0.601,-0.297 0.518,-0.283L0.65,-0L0.539,-0L0.409,-0.28L0.19,-0.28L0.19,-0L0.09,-0L0.09,-0.7L0.473,-0.7C0.586,-0.7 0.643,-0.643 0.643,-0.53L0.643,-0.45ZM0.19,-0.38L0.468,-0.38C0.494,-0.38 0.514,-0.386 0.525,-0.397C0.537,-0.409 0.543,-0.428 0.543,-0.455L0.543,-0.525C0.543,-0.552 0.537,-0.571 0.525,-0.583C0.514,-0.594 0.494,-0.6 0.468,-0.6L0.19,-0.6L0.19,-0.38Z" style="fill:rgb(251,88,88);fill-rule:nonzero;"/>
                </g>
                <g transform="matrix(144,0,0,144,655.1,603.786)">
                    <path d="M0.09,-0.7L0.6,-0.7L0.6,-0.6L0.19,-0.6L0.19,-0.4L0.54,-0.4L0.54,-0.3L0.19,-0.3L0.19,-0.1L0.6,-0.1L0.6,-0L0.09,-0L0.09,-0.7Z" style="fill:rgb(251,88,88);fill-rule:nonzero;"/>
                </g>
                <g transform="matrix(144,0,0,144,750.162,603.786)">
                    <path d="M0.19,-0L0.09,-0L0.09,-0.7L0.19,-0.7L0.611,-0.157L0.611,-0.7L0.711,-0.7L0.711,-0L0.611,-0L0.19,-0.543L0.19,-0Z" style="fill:rgb(251,88,88);fill-rule:nonzero;"/>
                </g>
                <g transform="matrix(144,0,0,144,865.475,603.786)">
                    <path d="M0.074,-0.7L0.624,-0.7L0.624,-0.67L0.227,-0.1L0.624,-0.1L0.624,-0L0.06,-0L0.06,-0.03L0.457,-0.6L0.074,-0.6L0.074,-0.7Z" style="fill:rgb(251,88,88);fill-rule:nonzero;"/>
                </g>
                <g transform="matrix(144,0,0,144,963.982,603.786)">
                    <path d="M0.136,-0.7L0.34,-0.373L0.544,-0.7L0.66,-0.7L0.39,-0.278L0.39,-0L0.29,-0L0.29,-0.278L0.02,-0.7L0.136,-0.7Z" style="fill:rgb(251,88,88);fill-rule:nonzero;"/>
                </g>
            </g>
            <g id="Logo" transform="matrix(2.28527,0,0,2.67773,-1127.24,-270.797)">
                <path d="M681.67,187.473L681.67,164.602L694.451,164.602L720.014,187.81L730.105,332.105L706.224,354.304L537.712,354.304L514.503,331.096L524.93,187.137L551.166,164.265L574.374,164.602L574.374,128.612L585.81,116.84L659.471,116.84L669.898,127.939L669.898,212.027L658.125,212.027L658.125,187.81L597.246,187.81L597.246,164.602L658.462,164.602L658.462,127.939L585.81,127.939L585.81,212.027L574.037,212.027L574.037,187.473L548.138,187.473L539.057,331.432L705.215,331.432L695.124,187.137L681.67,187.473Z" style="fill:rgb(251,88,88);"/>
                <g transform="matrix(1,0,0,1,-18.8357,28.5383)">
                    <g transform="matrix(96,0,0,96,612.045,274.252)">
                        <path d="M0.09,-0.7L0.6,-0.7L0.6,-0.6L0.19,-0.6L0.19,-0.4L0.54,-0.4L0.54,-0.3L0.19,-0.3L0.19,-0L0.09,-0L0.09,-0.7Z" style="fill:rgb(251,88,88);fill-rule:nonzero;"/>
                    </g>
                </g>
            </g>
        </g>
    </g>
</svg>
